M48
; DRILL file {KiCad 6.0.10-86aedd382b~118~ubuntu22.04.1} date Tue Jan 24 12:47:53 2023
; FORMAT={-:-/ absolute / metric / decimal}
; #@! TF.CreationDate,2023-01-24T12:47:53+01:00
; #@! TF.GenerationSoftware,Kicad,Pcbnew,6.0.10-86aedd382b~118~ubuntu22.04.1
; #@! TF.FileFunction,Plated,1,2,PTH
FMAT,2
METRIC
; #@! TA.AperFunction,Plated,PTH,ViaDrill
T1C0.400
; #@! TA.AperFunction,Plated,PTH,ComponentDrill
T2C0.900
; #@! TA.AperFunction,Plated,PTH,ComponentDrill
T3C1.000
; #@! TA.AperFunction,Plated,PTH,ComponentDrill
T4C1.320
; #@! TA.AperFunction,Plated,PTH,ComponentDrill
T5C1.500
; #@! TA.AperFunction,Plated,PTH,ComponentDrill
T6C1.700
%
G90
G05
T1
X115.189Y-84.582
X117.094Y-86.233
X119.634Y-86.233
X121.031Y-82.931
X122.809Y-80.899
X123.952Y-80.772
X124.714Y-73.533
X124.714Y-76.073
X124.714Y-78.613
X124.714Y-91.313
X124.714Y-93.853
X124.714Y-96.393
X124.714Y-101.473
X124.714Y-104.013
X124.714Y-106.553
X124.714Y-109.093
X124.714Y-111.633
X124.714Y-114.173
X124.714Y-116.713
X124.714Y-119.253
X124.714Y-121.793
X124.714Y-124.333
X124.714Y-126.873
X127.254Y-73.533
X127.254Y-78.613
X127.254Y-96.393
X127.254Y-126.873
X128.143Y-82.296
X129.243Y-82.677
X129.794Y-73.533
X129.794Y-78.613
X129.794Y-91.313
X129.794Y-96.393
X129.794Y-126.873
X131.699Y-88.392
X132.334Y-98.933
X132.334Y-101.473
X132.334Y-104.013
X132.334Y-111.633
X132.334Y-121.793
X132.334Y-124.333
X132.334Y-126.873
X133.096Y-88.392
X133.985Y-117.856
X133.985Y-118.999
X134.874Y-73.533
X134.874Y-76.073
X134.874Y-88.773
X134.874Y-93.853
X134.874Y-96.393
X134.874Y-98.933
X134.874Y-101.473
X134.874Y-124.333
X134.874Y-126.873
X135.128Y-81.28
X136.271Y-113.829
X136.398Y-122.555
X137.033Y-114.554
X137.414Y-73.533
X137.414Y-76.073
X137.414Y-88.773
X137.414Y-93.853
X137.414Y-96.393
X137.414Y-98.933
X137.414Y-101.473
X137.414Y-126.873
X139.954Y-73.533
X139.954Y-78.613
X139.954Y-91.313
X139.954Y-93.853
X139.954Y-101.473
X139.954Y-126.873
X140.716Y-112.649
X142.494Y-73.533
X142.494Y-81.153
X142.494Y-91.313
X142.494Y-93.853
X142.494Y-126.873
X142.875Y-111.76
X143.637Y-109.982
X145.034Y-73.533
X147.574Y-73.533
X147.574Y-78.613
X147.574Y-81.153
X147.574Y-83.693
X147.574Y-86.233
X147.574Y-91.313
X147.574Y-93.853
X147.574Y-96.393
X147.574Y-98.933
X147.574Y-101.473
X147.574Y-124.333
X150.114Y-73.533
X150.114Y-78.613
X150.114Y-81.153
X150.114Y-83.693
X150.114Y-86.233
X150.114Y-88.773
X150.114Y-93.853
X150.114Y-96.393
X150.114Y-98.933
X150.114Y-101.473
X151.257Y-115.697
X151.257Y-116.967
X152.049Y-111.82
X152.527Y-116.967
X152.654Y-73.533
X152.654Y-81.153
X152.654Y-83.693
X152.654Y-86.233
X152.654Y-88.773
X152.654Y-91.313
X152.654Y-96.393
X152.654Y-98.933
X153.797Y-126.619
X153.924Y-115.443
X155.194Y-73.533
X155.194Y-83.693
X155.194Y-93.853
X155.194Y-98.933
X157.734Y-73.533
X157.734Y-93.853
X157.734Y-96.393
X157.734Y-101.473
X159.258Y-109.474
X159.766Y-104.14
X159.893Y-122.428
X160.274Y-73.533
X162.814Y-73.533
X163.83Y-111.252
X163.83Y-112.522
X163.957Y-116.332
X164.846Y-90.17
X164.846Y-92.329
X165.354Y-73.533
X165.354Y-76.073
X168.656Y-101.193
X168.656Y-106.934
X168.656Y-110.998
X169.926Y-90.297
X169.926Y-91.567
X170.053Y-93.726
X170.434Y-124.333
X172.212Y-94.234
X172.212Y-100.457
X172.212Y-106.299
X172.212Y-111.76
X172.974Y-73.533
X172.974Y-83.693
X175.514Y-73.533
X175.514Y-119.253
X175.514Y-121.793
X175.514Y-126.873
X178.054Y-73.533
X178.054Y-126.873
X180.594Y-73.533
X180.594Y-91.313
X180.594Y-126.873
X183.134Y-73.533
X183.134Y-78.613
X183.134Y-81.153
X183.134Y-96.393
X183.134Y-101.473
X183.134Y-106.553
X183.134Y-111.633
X183.134Y-116.713
X183.134Y-121.793
X183.134Y-126.873
X185.674Y-73.533
X185.674Y-78.613
X185.674Y-81.153
X185.674Y-83.693
X185.674Y-86.233
X185.674Y-88.773
X185.674Y-91.313
X185.674Y-96.393
X185.674Y-101.473
X185.674Y-106.553
X185.674Y-111.633
X185.674Y-116.713
X185.674Y-121.793
X185.674Y-126.873
X188.214Y-81.153
X188.214Y-83.693
X188.214Y-86.233
X188.214Y-88.773
X188.214Y-91.313
X188.214Y-93.853
X188.214Y-96.393
X188.214Y-98.933
X188.214Y-101.473
X188.214Y-104.013
X188.214Y-106.553
X188.214Y-109.093
X188.214Y-111.633
X188.214Y-114.173
X188.214Y-116.713
X188.214Y-119.253
X188.214Y-121.793
X188.214Y-124.333
X188.214Y-126.873
T2
X117.475Y-81.91
X117.475Y-84.45
T3
X138.049Y-82.042
X138.049Y-84.582
X138.049Y-87.122
X140.589Y-82.042
X140.589Y-84.582
X140.589Y-87.122
X140.593Y-75.819
X142.997Y-114.432
X142.997Y-116.972
X142.997Y-119.512
X142.997Y-122.052
X142.997Y-124.592
X143.133Y-75.819
X145.537Y-114.432
X145.537Y-116.972
X145.537Y-119.512
X145.537Y-122.052
X145.537Y-124.592
X145.673Y-75.819
X148.213Y-75.819
X149.733Y-124.079
X150.753Y-75.819
X152.273Y-124.079
X153.293Y-75.819
X154.813Y-124.079
X155.833Y-75.819
X157.353Y-124.079
X158.373Y-75.819
X159.893Y-124.079
X160.913Y-75.819
X162.433Y-124.079
X163.453Y-75.819
X164.973Y-124.079
X167.513Y-75.819
X167.513Y-124.079
X170.053Y-75.819
X172.593Y-75.819
X172.593Y-124.079
X175.133Y-75.819
X175.133Y-124.079
X177.673Y-75.819
X177.673Y-124.079
X180.213Y-75.819
X180.213Y-124.079
X182.753Y-75.819
X182.753Y-124.079
X185.293Y-75.819
X185.293Y-124.079
X188.443Y-73.264
X188.443Y-75.804
X188.443Y-78.344
T4
X128.26Y-113.069
X128.26Y-118.069
X128.26Y-123.069
X128.27Y-103.077
X128.27Y-108.077
T5
X180.213Y-87.122
X183.642Y-94.126
X183.642Y-99.126
X183.642Y-104.126
X183.642Y-109.126
X183.642Y-114.126
X183.642Y-119.126
T6
X177.673Y-84.582
X177.673Y-89.662
X182.753Y-84.582
X182.753Y-89.662
T0
M30
