G04 #@! TF.GenerationSoftware,KiCad,Pcbnew,6.0.10-86aedd382b~118~ubuntu22.04.1*
G04 #@! TF.CreationDate,2023-01-24T12:47:22+01:00*
G04 #@! TF.ProjectId,shield,73686965-6c64-42e6-9b69-6361645f7063,rev?*
G04 #@! TF.SameCoordinates,Original*
G04 #@! TF.FileFunction,Paste,Top*
G04 #@! TF.FilePolarity,Positive*
%FSLAX46Y46*%
G04 Gerber Fmt 4.6, Leading zero omitted, Abs format (unit mm)*
G04 Created by KiCad (PCBNEW 6.0.10-86aedd382b~118~ubuntu22.04.1) date 2023-01-24 12:47:22*
%MOMM*%
%LPD*%
G01*
G04 APERTURE LIST*
G04 Aperture macros list*
%AMRoundRect*
0 Rectangle with rounded corners*
0 $1 Rounding radius*
0 $2 $3 $4 $5 $6 $7 $8 $9 X,Y pos of 4 corners*
0 Add a 4 corners polygon primitive as box body*
4,1,4,$2,$3,$4,$5,$6,$7,$8,$9,$2,$3,0*
0 Add four circle primitives for the rounded corners*
1,1,$1+$1,$2,$3*
1,1,$1+$1,$4,$5*
1,1,$1+$1,$6,$7*
1,1,$1+$1,$8,$9*
0 Add four rect primitives between the rounded corners*
20,1,$1+$1,$2,$3,$4,$5,0*
20,1,$1+$1,$4,$5,$6,$7,0*
20,1,$1+$1,$6,$7,$8,$9,0*
20,1,$1+$1,$8,$9,$2,$3,0*%
G04 Aperture macros list end*
%ADD10RoundRect,0.250000X-0.475000X0.337500X-0.475000X-0.337500X0.475000X-0.337500X0.475000X0.337500X0*%
%ADD11RoundRect,0.250000X0.350000X0.450000X-0.350000X0.450000X-0.350000X-0.450000X0.350000X-0.450000X0*%
%ADD12RoundRect,0.250000X-0.350000X-0.450000X0.350000X-0.450000X0.350000X0.450000X-0.350000X0.450000X0*%
%ADD13RoundRect,0.250000X-0.325000X-0.450000X0.325000X-0.450000X0.325000X0.450000X-0.325000X0.450000X0*%
%ADD14R,1.200000X0.900000*%
%ADD15RoundRect,0.250000X0.475000X-0.337500X0.475000X0.337500X-0.475000X0.337500X-0.475000X-0.337500X0*%
%ADD16RoundRect,0.250000X-0.450000X0.350000X-0.450000X-0.350000X0.450000X-0.350000X0.450000X0.350000X0*%
%ADD17RoundRect,0.250000X0.450000X-0.350000X0.450000X0.350000X-0.450000X0.350000X-0.450000X-0.350000X0*%
%ADD18RoundRect,0.150000X-0.587500X-0.150000X0.587500X-0.150000X0.587500X0.150000X-0.587500X0.150000X0*%
%ADD19RoundRect,0.150000X0.587500X0.150000X-0.587500X0.150000X-0.587500X-0.150000X0.587500X-0.150000X0*%
%ADD20R,0.900000X1.200000*%
%ADD21RoundRect,0.150000X0.512500X0.150000X-0.512500X0.150000X-0.512500X-0.150000X0.512500X-0.150000X0*%
%ADD22RoundRect,0.250000X1.000000X-1.750000X1.000000X1.750000X-1.000000X1.750000X-1.000000X-1.750000X0*%
%ADD23RoundRect,0.250000X-0.337500X-0.475000X0.337500X-0.475000X0.337500X0.475000X-0.337500X0.475000X0*%
%ADD24RoundRect,0.150000X0.150000X-0.512500X0.150000X0.512500X-0.150000X0.512500X-0.150000X-0.512500X0*%
%ADD25RoundRect,0.250000X0.337500X0.475000X-0.337500X0.475000X-0.337500X-0.475000X0.337500X-0.475000X0*%
%ADD26RoundRect,0.150000X-0.725000X-0.150000X0.725000X-0.150000X0.725000X0.150000X-0.725000X0.150000X0*%
G04 APERTURE END LIST*
D10*
X164084000Y-118850500D03*
X164084000Y-120925500D03*
D11*
X140192000Y-114554000D03*
X138192000Y-114554000D03*
D12*
X158639000Y-86106000D03*
X160639000Y-86106000D03*
D13*
X154804000Y-88138000D03*
X156854000Y-88138000D03*
D14*
X151638000Y-105157000D03*
X151638000Y-108457000D03*
D15*
X133096000Y-82698500D03*
X133096000Y-80623500D03*
X122804650Y-84113071D03*
X122804650Y-82038071D03*
D13*
X154804000Y-92329000D03*
X156854000Y-92329000D03*
D12*
X174206000Y-106701000D03*
X176206000Y-106701000D03*
X174206000Y-100986000D03*
X176206000Y-100986000D03*
D16*
X138049000Y-109871000D03*
X138049000Y-111871000D03*
D11*
X140192000Y-123317000D03*
X138192000Y-123317000D03*
X180197000Y-81788000D03*
X178197000Y-81788000D03*
D13*
X154804000Y-86106000D03*
X156854000Y-86106000D03*
D12*
X118888000Y-87630000D03*
X120888000Y-87630000D03*
X158639000Y-92329000D03*
X160639000Y-92329000D03*
D16*
X145542000Y-109744000D03*
X145542000Y-111744000D03*
D17*
X156337000Y-118475000D03*
X156337000Y-116475000D03*
D16*
X170142000Y-108241000D03*
X170142000Y-110241000D03*
D12*
X138192000Y-125349000D03*
X140192000Y-125349000D03*
D14*
X160528000Y-106173000D03*
X160528000Y-109473000D03*
D12*
X139970000Y-109982000D03*
X141970000Y-109982000D03*
D18*
X174284500Y-97115000D03*
X174284500Y-99015000D03*
X176159500Y-98065000D03*
D11*
X130413000Y-88392000D03*
X128413000Y-88392000D03*
D16*
X172174000Y-113956000D03*
X172174000Y-115956000D03*
D17*
X122783369Y-87864028D03*
X122783369Y-85864028D03*
D12*
X174222000Y-95271000D03*
X176222000Y-95271000D03*
X155210000Y-126619000D03*
X157210000Y-126619000D03*
D17*
X180213000Y-79740000D03*
X180213000Y-77740000D03*
D12*
X129175000Y-80772000D03*
X131175000Y-80772000D03*
D17*
X162306000Y-116459000D03*
X162306000Y-114459000D03*
X158242000Y-106156000D03*
X158242000Y-104156000D03*
D18*
X174284500Y-102830000D03*
X174284500Y-104730000D03*
X176159500Y-103780000D03*
D19*
X160228000Y-116409000D03*
X160228000Y-114509000D03*
X158353000Y-115459000D03*
D12*
X158639000Y-88138000D03*
X160639000Y-88138000D03*
D10*
X140081000Y-119411886D03*
X140081000Y-121486886D03*
D16*
X170142000Y-96827000D03*
X170142000Y-98827000D03*
X172174000Y-96827000D03*
X172174000Y-98827000D03*
D19*
X156004500Y-106106000D03*
X156004500Y-104206000D03*
X154129500Y-105156000D03*
D17*
X135128000Y-84566000D03*
X135128000Y-82566000D03*
D12*
X115078000Y-87630000D03*
X117078000Y-87630000D03*
X152162000Y-102362000D03*
X154162000Y-102362000D03*
X160417000Y-112522000D03*
X162417000Y-112522000D03*
D20*
X175134000Y-78867000D03*
X178434000Y-78867000D03*
D12*
X150384000Y-126619000D03*
X152384000Y-126619000D03*
D21*
X138043500Y-121473000D03*
X138043500Y-120523000D03*
X138043500Y-119573000D03*
X135768500Y-119573000D03*
X135768500Y-120523000D03*
X135768500Y-121473000D03*
D16*
X135763000Y-115840000D03*
X135763000Y-117840000D03*
D22*
X140970000Y-105967500D03*
X140970000Y-97967500D03*
D10*
X136017000Y-109833500D03*
X136017000Y-111908500D03*
D11*
X126651161Y-88392058D03*
X124651161Y-88392058D03*
D12*
X147463000Y-105156000D03*
X149463000Y-105156000D03*
X158639000Y-90170000D03*
X160639000Y-90170000D03*
D23*
X125327500Y-80772000D03*
X127402500Y-80772000D03*
D18*
X174284500Y-114260000D03*
X174284500Y-116160000D03*
X176159500Y-115210000D03*
D15*
X169672000Y-120925500D03*
X169672000Y-118850500D03*
D24*
X165928000Y-121152500D03*
X166878000Y-121152500D03*
X167828000Y-121152500D03*
X167828000Y-118877500D03*
X165928000Y-118877500D03*
D23*
X160104000Y-120904000D03*
X162179000Y-120904000D03*
D10*
X133096000Y-84560500D03*
X133096000Y-86635500D03*
D23*
X160104000Y-118745000D03*
X162179000Y-118745000D03*
D16*
X172174000Y-102526000D03*
X172174000Y-104526000D03*
X170142000Y-102526000D03*
X170142000Y-104526000D03*
X170142000Y-113956000D03*
X170142000Y-115956000D03*
D25*
X140229500Y-117475000D03*
X138154500Y-117475000D03*
D18*
X174284500Y-108545000D03*
X174284500Y-110445000D03*
X176159500Y-109495000D03*
D12*
X174222000Y-112416000D03*
X176222000Y-112416000D03*
D16*
X172174000Y-108241000D03*
X172174000Y-110241000D03*
D13*
X154804000Y-90170000D03*
X156854000Y-90170000D03*
D26*
X125568000Y-82677000D03*
X125568000Y-83947000D03*
X125568000Y-85217000D03*
X125568000Y-86487000D03*
X130718000Y-86487000D03*
X130718000Y-85217000D03*
X130718000Y-83947000D03*
X130718000Y-82677000D03*
M02*
